<svg xmlns="http://www.w3.org/2000/svg" version="1.1" xmlns:xlink="http://www.w3.org/1999/xlink" width="512" height="512" x="0" y="0" viewBox="0 0 512 512" style="enable-background:new 0 0 512 512" xml:space="preserve" class=""><g><path fill="#2b3890" d="M487.869 131.022c0-9.321-7.558-16.87-16.87-16.87H41c-9.312 0-16.87 7.549-16.87 16.87v210.605l21.561 20v.004h420.616v-.004l21.562-20z" opacity="1" data-original="#2b3890"></path><path fill="#242e7a" d="M470.999 114.152h-17.124c9.312 0 16.87 7.549 16.87 16.87V357.51l17.124-15.883V131.022c0-9.322-7.558-16.87-16.87-16.87z" opacity="1" data-original="#242e7a"></path><path fill="#dae7ef" d="M487.869 341.627v58.793c0 9.321-7.558 16.879-16.87 16.879H41c-9.312 0-16.87-7.558-16.87-16.879v-58.793z" opacity="1" data-original="#dae7ef"></path><path fill="#c1d5e4" d="M470.746 341.627v58.793c0 9.321-7.558 16.879-16.87 16.879H471c9.312 0 16.87-7.558 16.87-16.879v-58.793z" opacity="1" data-original="#c1d5e4"></path><path fill="#b1e4f9" d="M50.257 341.631V143.205a2.93 2.93 0 0 1 2.93-2.93h405.627a2.93 2.93 0 0 1 2.93 2.93v198.426z" opacity="1" data-original="#b1e4f9" class=""></path><path fill="#90d8f9" d="M443.463 140.275V341.63h18.28V143.205a2.93 2.93 0 0 0-2.93-2.93z" opacity="1" data-original="#90d8f9"></path><path fill="#dae7ef" d="M348.182 504.5H163.818c-2.158 0-3.66-2.146-2.92-4.173l4.213-11.544c1.955-5.357 8.001-9.031 14.863-9.031h152.053c6.862 0 12.908 3.673 14.863 9.031l4.213 11.544c.739 2.027-.762 4.173-2.921 4.173z" opacity="1" data-original="#dae7ef"></path><path fill="#c1d5e4" d="M298.16 417.299h-84.321c7.757 24.512.698 46.574-21.178 62.453h126.676c-21.875-15.879-28.934-37.941-21.177-62.453z" opacity="1" data-original="#c1d5e4"></path><path fill="#98b9d3" d="M213.839 417.299c1.945 6.148 2.958 12.141 3.04 17.922h78.242c.082-5.781 1.094-11.774 3.04-17.922z" opacity="1" data-original="#98b9d3"></path><path fill="#dd5ca2" d="M284.465 42.208H93.812V20.442c0-7.148 5.795-12.942 12.942-12.942h143.217a25.95 25.95 0 0 1 22.711 13.395z" opacity="1" data-original="#dd5ca2"></path><path fill="#eab14d" d="M242.074 42.208H93.812V20.442c0-7.148 5.795-12.942 12.942-12.942H207.58a25.95 25.95 0 0 1 22.711 13.395z" opacity="1" data-original="#eab14d"></path><path fill="#f9f6f6" d="M406.855 257.391H105.144c-6.259 0-11.332-5.074-11.332-11.332V42.208h313.043c6.259 0 11.332 5.074 11.332 11.332v192.519c.001 6.259-5.073 11.332-11.332 11.332z" opacity="1" data-original="#f9f6f6"></path><path fill="#dae7ef" d="M406.855 42.208h-18.478c6.259 0 11.332 5.074 11.332 11.332v192.519c0 6.259-5.074 11.332-11.332 11.332h18.478c6.259 0 11.332-5.074 11.332-11.332V53.54c0-6.259-5.073-11.332-11.332-11.332z" opacity="1" data-original="#dae7ef"></path><path fill="#80b4fb" d="M199.683 42.208H93.812V20.442c0-7.148 5.795-12.942 12.942-12.942h58.436a25.95 25.95 0 0 1 22.711 13.395z" opacity="1" data-original="#80b4fb"></path><path fill="#ffe07d" d="m335.082 202.57-67.551 89.031c-6.842 9.018-.41 21.972 10.91 21.972h135.101c11.32 0 17.752-12.954 10.91-21.972l-67.551-89.031c-5.479-7.222-16.339-7.222-21.819 0z" opacity="1" data-original="#ffe07d"></path><path fill="#ffd064" d="m424.452 291.601-67.551-89.031c-5.48-7.223-16.339-7.223-21.82 0l-3.342 4.404 64.208 84.626c6.843 9.018.411 21.972-10.91 21.972h28.503c11.322.001 17.755-12.953 10.912-21.971z" opacity="1" data-original="#ffd064"></path><path d="M495.37 131.021c0-13.438-10.933-24.369-24.37-24.369h-45.312V53.54c0-10.384-8.448-18.832-18.832-18.832h-28.675c-4.143 0-7.5 3.357-7.5 7.5s3.357 7.5 7.5 7.5h28.675a3.836 3.836 0 0 1 3.832 3.832v192.52a3.836 3.836 0 0 1-3.832 3.832h-4.636l-39.344-51.854c-8.482-11.179-25.28-11.192-33.769 0l-39.344 51.854h-184.62a3.836 3.836 0 0 1-3.832-3.832V49.708h246.882c4.143 0 7.5-3.357 7.5-7.5s-3.357-7.5-7.5-7.5h-59.306l-9.641-17.441A33.455 33.455 0 0 0 249.972 0H106.754C95.383 0 86.312 9.334 86.312 20.442v86.21H41c-13.438 0-24.37 10.932-24.37 24.369V400.42c0 13.442 10.933 24.379 24.37 24.379h167.093c4.161 18.727-1.973 35.011-17.939 47.453h-10.181c-10.057 0-18.86 5.609-21.908 13.959l-4.212 11.543a10.617 10.617 0 0 0 1.271 9.718 10.615 10.615 0 0 0 8.693 4.528h184.364c3.46 0 6.71-1.692 8.693-4.528a10.619 10.619 0 0 0 1.272-9.717l-4.214-11.544c-3.047-8.35-11.852-13.959-21.908-13.959h-10.18c-15.967-12.442-22.101-28.727-17.94-47.453h39.82c4.143 0 7.5-3.357 7.5-7.5s-3.357-7.5-7.5-7.5H40.998c-5.167 0-9.37-4.207-9.37-9.379v-51.293h448.739v51.293c0 5.172-4.203 9.379-9.37 9.379h-97.286c-4.143 0-7.5 3.357-7.5 7.5s3.357 7.5 7.5 7.5H471c13.438 0 24.37-10.937 24.37-24.379zM339.843 491.354l2.062 5.646h-171.81l2.061-5.646c.727-1.988 3.713-4.102 7.817-4.102h152.053c4.105 0 7.092 2.113 7.817 4.102zm-51.244-66.555c-3.112 17.675.989 33.911 11.881 47.453h-88.96c10.889-13.541 14.991-29.779 11.881-47.453zM105.144 264.892h173.239l-16.826 22.176c-10.585 13.951-.625 34.006 16.884 34.006h12.449c4.143 0 7.5-3.357 7.5-7.5s-3.357-7.5-7.5-7.5h-12.449c-5.131 0-8.034-5.853-4.935-9.939l67.551-89.03c2.481-3.269 7.388-3.269 9.87 0l67.55 89.03c3.101 4.087.196 9.939-4.935 9.939h-92.665c-4.143 0-7.5 3.357-7.5 7.5s3.357 7.5 7.5 7.5h92.665c17.514 0 27.467-20.058 16.884-34.006l-17.579-23.169c7.452-2.51 12.841-9.551 12.841-17.838v-98.284h28.555v186.352H57.756V147.775h28.556v98.284c0 10.384 8.448 18.833 18.832 18.833zM266.12 24.524l5.629 10.184h-25.251C236.501 16.714 236.934 17.211 235.47 15h14.502c6.712 0 12.9 3.649 16.148 9.524zm-42.391-.001 5.629 10.185h-25.251C194.11 16.714 194.543 17.211 193.08 15h14.502a18.457 18.457 0 0 1 16.147 9.523zM165.191 15a18.455 18.455 0 0 1 16.147 9.524l5.629 10.184h-85.655V20.442A5.448 5.448 0 0 1 106.754 15zM31.63 131.021c0-5.166 4.203-9.369 9.37-9.369h45.312v11.123H50.256a7.499 7.499 0 0 0-7.5 7.5v193.852H31.63zm437.613 203.106V140.275c0-4.143-3.357-7.5-7.5-7.5h-36.055v-11.123H471c5.167 0 9.37 4.203 9.37 9.369v203.105h-11.127z" fill="#000000" opacity="1" data-original="#000000"></path><path d="M247.278 371.963c-4.143 0-7.5 3.357-7.5 7.5s3.357 7.5 7.5 7.5h17.443c4.143 0 7.5-3.357 7.5-7.5s-3.357-7.5-7.5-7.5zM196.778 177.396h.065a7.5 7.5 0 0 0 7.499-7.436c.021-2.518.063-7.473.108-13.604h1.665c4.143 0 7.5-3.357 7.5-7.5s-3.357-7.5-7.5-7.5h-1.565c.102-17.237.156-35.876-.056-38.428-.456-5.467-3.725-9.92-8.329-11.347-4.557-1.41-9.426.373-13.016 4.776-4.025 4.938-22.729 38.658-28.366 48.875a7.502 7.502 0 0 0 6.567 11.124h28.098c-.034 4.773-.07 9.354-.106 13.476a7.502 7.502 0 0 0 7.436 7.564zm-22.685-36.041c5.841-10.455 11.556-20.501 15.55-27.278.005 7.042-.035 16.975-.096 27.278zM349.083 141.355c.102-17.237.156-35.876-.056-38.428-.456-5.467-3.725-9.92-8.329-11.347-4.557-1.41-9.427.373-13.016 4.776-4.025 4.938-22.729 38.658-28.366 48.875a7.502 7.502 0 0 0 6.567 11.124h28.098c-.034 4.773-.07 9.354-.106 13.476a7.501 7.501 0 0 0 7.436 7.564h.065a7.5 7.5 0 0 0 7.499-7.436c.021-2.518.063-7.473.108-13.604h1.665c4.143 0 7.5-3.357 7.5-7.5s-3.357-7.5-7.5-7.5zm-15.002 0h-15.454c5.841-10.455 11.556-20.501 15.55-27.278.004 7.042-.036 16.975-.096 27.278zM227.885 119.845v32.967c0 15.503 12.612 28.115 28.114 28.115s28.114-12.612 28.114-28.115v-32.967c0-15.502-12.612-28.114-28.114-28.114s-28.114 12.612-28.114 28.114zm41.229 0v32.967c0 7.231-5.883 13.115-13.114 13.115s-13.114-5.884-13.114-13.115v-32.967c0-7.231 5.883-13.114 13.114-13.114s13.114 5.882 13.114 13.114zM345.992 271.386c4.143 0 7.5-3.357 7.5-7.5v-37.69c0-4.143-3.357-7.5-7.5-7.5s-7.5 3.357-7.5 7.5v37.69a7.5 7.5 0 0 0 7.5 7.5zM345.992 295.334c4.143 0 7.5-3.357 7.5-7.5v-3.078c0-4.143-3.357-7.5-7.5-7.5s-7.5 3.357-7.5 7.5v3.078c0 4.143 3.357 7.5 7.5 7.5z" fill="#000000" opacity="1" data-original="#000000"></path></g></svg>